<svg width="1440" height="1024" viewBox="0 0 1440 1024" fill="none" xmlns="http://www.w3.org/2000/svg">
<path d="M624.19 306.626C556.19 301.826 523.19 334.626 515.19 351.626C510.19 358.959 503.19 386.026 515.19 435.626C527.19 485.226 592.857 491.626 624.19 488.626L509.19 645.626C483.19 735.626 546.19 749.626 567.19 755.626C588.19 761.626 657.19 752.626 726.19 755.626C795.19 758.626 908.19 760.626 920.19 708.626C932.19 656.626 925.19 619.626 889.19 593.626C860.39 572.826 806.523 575.626 783.19 579.626L908.19 417.626C932.19 361.626 901.523 330.293 883.19 321.626C857.19 291.626 709.19 312.626 624.19 306.626Z" stroke="#8A90AA" stroke-width="25"/>
</svg>
